PathFileType	4	(X/Y/Z)	/Users/mathieubourgeois/Desktop/Analyse/Traitement/Sujet_03/Transformed_Static_Sujet_03_Tpose.trc
DataRate	CameraRate	NumFrames	NumMarkers	Units	OrigDataRate	OrigDataStartFrame	OrigNumFrames
120.000000	120.000000	5	36	mm	120.000000	0	244
Frame#	Time	RFHD			LFHD			RBHD			LBHD			C7			CLAV			RSHO			LSHO			STRN			T10			RBWT			LBWT			RFWT			LFWT			RKNI			LKNI			RKNE			LKNE			LANI			RANI			LANE			RANE			LTOE			RTOE			LHEE			RHEE			RHUM			LHUM			RRAD			LRAD			RWRA			RWRB			LWRA			LWRB			RCAR			LCAR			
		X1	Y1	Z1	X2	Y2	Z2	X3	Y3	Z3	X4	Y4	Z4	X5	Y5	Z5	X6	Y6	Z6	X7	Y7	Z7	X8	Y8	Z8	X9	Y9	Z9	X10	Y10	Z10	X11	Y11	Z11	X12	Y12	Z12	X13	Y13	Z13	X14	Y14	Z14	X15	Y15	Z15	X16	Y16	Z16	X17	Y17	Z17	X18	Y18	Z18	X19	Y19	Z19	X20	Y20	Z20	X21	Y21	Z21	X22	Y22	Z22	X23	Y23	Z23	X24	Y24	Z24	X25	Y25	Z25	X26	Y26	Z26	X27	Y27	Z27	X28	Y28	Z28	X29	Y29	Z29	X30	Y30	Z30	X31	Y31	Z31	X32	Y32	Z32	X33	Y33	Z33	X34	Y34	Z34	X35	Y35	Z35	X36	Y36	Z36	

1	0	-731.2693481445312	1773.3994140625	294.8244018554685	-576.2659912109375	1768.564575195312	287.6375427246092	-738.471923828125	1734.438720703125	167.476608276367	-590.3237915039062	1732.403564453125	143.1999206542967	-652.8492431640625	1574.682495117188	130.3669128417967	-649.619384765625	1504.595458984375	263.9441528320311	-805.9364624023438	1588.741821289062	156.3883666992186	-498.8316040039062	1593.72607421875	136.9415130615233	-647.140625	1338.412353515625	312.7082214355468	-649.4409790039062	1331.821044921875	93.35317993164045	-724.60595703125	1090.915283203125	125.6732864379881	-600.3792114257812	1088.862182617188	127.529327392578	-792.2569580078125	1055.985717773438	284.5694885253905	-538.8624877929688	1038.45703125	293.5020141601561	-731.5586547851562	478.5253601074219	169.0550842285155	-593.3229370117188	480.3055725097656	158.5468597412108	-841.0471801757812	533.510009765625	174.3648529052733	-488.0130004882812	524.8751220703125	166.7733154296874	-586.65673828125	94.8289031982422	139.9679412841796	-730.080078125	97.5992889404297	160.2133636474609	-496.7914428710938	74.95267486572267	120.0146179199218	-816.8646240234375	81.92613983154298	131.3150787353514	-522.8198852539062	31.98264694213869	327.6598205566406	-797.5992431640625	32.2574157714844	341.959259033203	-544.0752563476562	38.68140029907227	61.46802520751947	-766.5557250976562	39.26449584960938	74.21799468994131	-1094.304321289062	1493.120361328125	204.7843627929685	-201.2248229980469	1507.239624023438	211.9412384033202	-1108.486450195312	1525.081909179688	134.6695709228513	-195.748291015625	1538.7646484375	138.6177520751952	-1364.05029296875	1612.90185546875	172.6335449218747	-1373.36962890625	1553.09033203125	123.9172592163083	55.99703979492185	1601.334228515625	167.5573272705077	65.81465911865233	1530.34326171875	141.599884033203	-1471.4033203125	1599.39697265625	117.6733779907224	165.6766967773437	1574.780029296875	149.8772735595703	
2	0.008333333333333333	-731.321044921875	1773.41259765625	294.7826843261716	-576.322265625	1768.575805664062	287.5790405273436	-738.5372314453125	1734.444946289062	167.4537048339842	-590.4064331054688	1732.390869140625	143.1612701416014	-652.904052734375	1574.677856445312	130.350875854492	-649.6578369140625	1504.603881835938	263.9213562011717	-805.987060546875	1588.739868164062	156.4009857177733	-498.8900451660156	1593.754760742188	136.9319610595702	-647.1704711914062	1338.433471679688	312.7024536132811	-649.45361328125	1331.84033203125	93.31938171386702	-723.7916259765625	1091.078735351562	125.2843551635741	-600.3480834960938	1088.85693359375	127.4626083374022	-792.2044677734375	1055.986083984375	284.5280456542967	-538.8067016601562	1038.471801757812	293.422149658203	-731.5370483398438	478.525390625	169.0404815673827	-591.9031982421875	479.894287109375	157.0056152343749	-841.0209350585938	533.5179443359375	174.3605346679686	-487.980712890625	524.876708984375	166.6999053955077	-586.6392822265625	94.84553527832033	139.9515075683593	-730.0764770507812	97.60462951660158	160.2062835693359	-496.7761535644531	74.95423126220705	120.0180053710937	-816.8612670898438	81.93384552001955	131.313751220703	-522.8167114257812	31.97795677185061	327.6528015136718	-797.5891723632812	32.25918960571291	341.9658813476561	-544.0675048828125	38.67005920410157	61.46561050415033	-766.5587768554688	39.25975418090821	74.22332000732412	-1094.350341796875	1493.095581054688	204.825485229492	-201.2690124511719	1507.304321289062	211.9568023681639	-1108.528076171875	1525.067749023438	134.7128143310545	-195.7889404296875	1538.8515625	138.6313934326171	-1364.110717773438	1612.856811523438	172.6921844482419	-1372.101684570312	1552.184326171875	123.7143554687497	55.80458068847654	1601.443359375	167.3511505126952	65.77733612060545	1530.4990234375	141.6823272705077	-1471.445556640625	1599.326538085938	117.7267913818357	165.6408233642578	1574.968505859375	149.9657287597656	
3	0.01666666666666667	-731.3827514648438	1773.421142578125	294.7538146972654	-576.384521484375	1768.584716796875	287.537139892578	-738.5983276367188	1734.443481445312	167.4226989746092	-590.4718017578125	1732.389892578125	143.1296997070311	-652.9442138671875	1574.690307617188	130.3407897949217	-649.7060546875	1504.61328125	263.9003906249998	-806.0405883789062	1588.732299804688	156.3974456787108	-498.9325256347656	1593.780639648438	136.9171295166014	-647.1886596679688	1338.440185546875	312.7002563476561	-649.4705200195312	1331.8603515625	93.27433776855452	-723.7539672851562	1091.080444335938	125.2204132080077	-600.312744140625	1088.867919921875	127.3880386352538	-792.1510009765625	1055.988037109375	284.4871826171873	-538.7587890625	1038.47998046875	293.338409423828	-731.5172729492188	478.5203552246094	169.0228271484374	-591.4718627929688	479.963134765625	155.8682098388671	-840.9876708984375	533.520263671875	174.3413696289061	-487.9551391601562	524.8750610351562	166.6369323730468	-586.63623046875	94.84161376953126	139.9407348632812	-730.076904296875	97.59481811523439	160.2079925537109	-496.7778015136719	74.94651031494142	120.0164108276367	-816.8510131835938	81.94536590576173	131.3162384033202	-522.815185546875	31.98793601989748	327.6439819335937	-797.5828857421875	32.25422668457033	341.960723876953	-544.0621337890625	38.66877365112305	61.46916198730462	-766.5487060546875	39.25294876098634	74.21714019775381	-1094.385620117188	1493.0966796875	204.8702239990232	-201.3056335449219	1507.360595703125	211.9474182128905	-1108.572631835938	1525.054321289062	134.745407104492	-195.8333587646485	1538.970581054688	138.6610107421874	-1364.157348632812	1612.807861328125	172.7494354248044	-1372.115478515625	1552.102294921875	123.8299560546872	55.72951889038084	1601.596923828125	167.4261779785155	65.58853149414061	1530.902099609375	142.8758544921874	-1471.528198242188	1599.269287109375	117.795959472656	165.57861328125	1575.171752929688	150.056167602539	
4	0.025	-732.10693359375	1773.149291992188	295.1816711425779	-576.8372192382812	1768.177124023438	288.1228027343748	-738.5479736328125	1733.940307617188	166.9732818603514	-590.5303344726562	1732.396484375	143.0863800048826	-652.9847412109375	1574.700805664062	130.3543853759764	-649.7348022460938	1504.636596679688	263.8786315917967	-806.0772705078125	1588.727661132812	156.3867340087889	-499.0019226074219	1593.79248046875	137.3058776855467	-647.1967163085938	1338.46240234375	312.6959228515624	-649.4939575195312	1331.87451171875	93.23850250244124	-721.95166015625	1090.5390625	124.479293823242	-600.273681640625	1088.87744140625	127.3228454589842	-792.0980224609375	1056.00830078125	284.447296142578	-538.6968994140625	1038.50146484375	293.2445373535155	-731.4806518554688	478.5385131835938	169.0170898437499	-591.820068359375	479.9182434082031	156.857940673828	-841.02099609375	533.1663208007812	173.8070831298827	-488.07177734375	525.1444091796875	166.7842407226562	-586.6256103515625	94.86035919189455	139.9349365234374	-730.1609497070312	98.04293060302736	160.1100921630859	-496.7798156738281	74.93996429443361	120.003807067871	-816.7178955078125	82.32814025878908	131.0903472900389	-522.2384643554688	31.87449264526369	327.3407897949218	-797.5817260742188	32.26969146728518	341.9637451171874	-544.0487670898438	38.66914749145509	61.46520614624017	-766.5572509765625	39.26450347900391	74.22272491455068	-1094.413696289062	1493.088989257812	204.909957885742	-201.3542022705078	1507.436157226562	211.9847259521483	-1108.605834960938	1525.04345703125	134.7844085693357	-195.1065216064453	1538.96875	139.0759887695311	-1364.186889648438	1613.180786132812	172.8409576416013	-1372.166137695312	1552.069091796875	123.9309005737302	55.66833114624021	1601.758911132812	167.5362701416015	65.70268249511717	1530.865478515625	141.8055725097655	-1471.56689453125	1599.20361328125	117.8793487548825	165.5171661376953	1575.37646484375	150.1594543457031	
5	0.03333333333333333	-732.24658203125	1772.694458007812	295.6180419921873	-576.3558959960938	1767.364379882812	288.5108032226561	-738.4248046875	1733.740966796875	168.0034179687498	-590.8702392578125	1732.3349609375	143.0256958007811	-653.1856079101562	1574.802734375	130.2851562499998	-649.6714477539062	1504.287231445312	263.8424987792967	-805.564453125	1588.600952148438	156.6187896728514	-498.5314025878906	1594.0263671875	136.8996124267577	-646.9368896484375	1338.305541992188	312.7525024414061	-649.6533813476562	1331.962036132812	93.19248962402327	-721.9461669921875	1091.044921875	125.1628646850584	-600.1137084960938	1088.486083984375	127.0586166381835	-791.56396484375	1055.863525390625	284.2622680664061	-538.5795288085938	1038.14208984375	293.2628173828124	-730.9756469726562	477.6354064941406	168.7773590087889	-591.5584716796875	479.8185729980469	156.377471923828	-840.8819580078125	532.9392700195312	173.280059814453	-487.8139343261719	524.35888671875	166.5032653808593	-585.5209350585938	94.11819458007814	139.3092346191405	-729.5194702148438	97.16602325439455	160.6375122070312	-496.3001403808594	74.18514251708986	120.0402755737304	-816.3546752929688	82.84189605712892	131.8905639648436	-521.177490234375	31.48121833801272	327.5639953613281	-796.6694946289062	31.78847122192385	342.0269470214843	-543.2273559570312	37.74537658691407	61.0387229919433	-764.7045288085938	39.00718307495118	74.6518554687499	-1094.204956054688	1493.462768554688	205.0362243652341	-201.2408447265625	1507.131958007812	211.9864044189452	-1108.82568359375	1525.13525390625	134.6918792724607	-195.4517822265625	1539.205322265625	138.9687499999999	-1364.051025390625	1612.484130859375	173.3571777343747	-1372.319091796875	1552.128784179688	123.8823699951169	56.12359619140623	1601.619995117188	167.7329711914062	65.99729156494139	1529.925537109375	141.0765991210937	-1471.860107421875	1599.340698242188	117.7200698852536	165.6033935546875	1575.358520507812	150.0786743164062	
